# xmcd
#
# Track frame offsets:
#	150
#	16594
#	33171
#	49221
#	64190
#	79039
#
# Disc length: 1336 seconds
#
# Revision: 1
# Processed by: cddbd v1.5.2PL0 Copyright (c) Steve Scherf et al.
# Submitted via: audiograbber 1.83.01
#
DISCID=3d053606
DTITLE=Various Artist - A Taste Of Texas Musix - Live at STUBB'S
DYEAR=2007
DGENRE=Country Rock
TTITLE0=Walt Wilkinson and The Mystiqueros - Trains I've Missed
TTITLE1=Lost Immigrants - Memmories and Rust
TTITLE2=Two Tons Of Steel - Vegas
TTITLE3=Daryl Lee Rush - Town Too Tough To Die
TTITLE4=Miles From Nowhere - Bloodline
TTITLE5=Eleven Hundred Springs - Rock Island Line
EXTD=
EXTT0=
EXTT1=
EXTT2=
EXTT3=
EXTT4=
EXTT5=
PLAYORDER=
